<?xml version="1.0" encoding="UTF-8"?>
<!DOCTYPE svg PUBLIC "-//W3C//DTD SVG 1.1//EN" "http://www.w3.org/Graphics/SVG/1.1/DTD/svg11.dtd">
<!-- Creator: CorelDRAW 2020 (64 Bit) -->
<svg xmlns="http://www.w3.org/2000/svg" xml:space="preserve" width="264px" height="290px"
  version="1.1"
  style="shape-rendering:geometricPrecision; text-rendering:geometricPrecision; image-rendering:optimizeQuality; fill-rule:evenodd; clip-rule:evenodd"
  viewBox="0 0 173.59 190.3"
  xmlns:xlink="http://www.w3.org/1999/xlink"
  xmlns:xodm="http://www.corel.com/coreldraw/odm/2003">
  <defs>
    <style type="text/css">
    <![CDATA[
      .fil0 {fill:#373435}
    ]]>
    </style>
  </defs>
  <g id="Camada_x0020_1">
    <metadata id="CorelCorpID_0Corel-Layer" />
    <g id="_2051193256848">
      <path class="fil0"
        d="M157.28 49.31c2.7,2.87 5.12,7.28 5.64,12.98 0.03,15.76 2.83,68.54 -4,77.4l-4.28 4.21 -7.84 4.59c-1.22,0.72 -4.37,2.74 -5.45,3.05 -17.07,-83.21 -29.64,25.21 -52.6,28.23 -2.71,0.17 -5.32,-0.08 -7.79,-0.83 -5.66,-1.71 -64.23,-37.16 -65.64,-39.01 -6.82,-8.96 -4.77,-17.59 -4.77,-31.21 0,-7.45 -0.39,-43.01 0.16,-47.2 0.73,-5.68 5.41,-11.75 12.69,-16.42 21.18,-13.62 36.55,-23.14 56.26,-32.78 6.46,-3.16 10.91,-1.51 18.31,1.23 10.99,4.05 54.86,31.02 59.31,35.76zm-78.54 -47.5c-7.46,1.75 -65.66,36.83 -67.87,38.88 -13.61,12.63 -10.61,24.68 -10.54,44.15 0.03,9.16 -0.01,18.32 0,27.48 0.01,8.49 -0.84,17.78 1.92,25.29 4.26,11.6 12.12,14.91 21.1,20.12 12.36,7.17 36.95,23.88 49.08,28.5 2.57,2.42 13.78,4.89 17.93,3.67 8.65,-0.44 18.77,-7.99 27.06,-12.57l24.84 -14.63c2,-0.77 12.67,-7.23 15.45,-8.86 5.57,-3.25 8.8,-6.55 12.05,-12.48 5.72,-10.42 3.34,-61.7 3.36,-77.73 -0.07,-9.41 -4.2,-16.82 -8.71,-21.46 -8.47,-6.25 -19.13,-13.53 -31.32,-20.67 -10.36,-6.07 -22.73,-13.2 -30.74,-17.46 -7.35,-3.91 -15.81,-5.6 -23.61,-2.23z" />
      <path class="fil0"
        d="M41.11 71.78c4.41,-1.08 5.78,5.89 1.27,7.03 -2.24,0.57 -3.89,-0.97 -4.17,-2.86 -0.37,-2.53 0.89,-3.67 2.9,-4.17zm88.78 15.81c-2.75,-9.9 -6.68,-17.29 -13.18,-24.56 -2.24,-2.51 -6.95,-6.36 -10.73,-8.31 -2.1,-1.08 -15.05,-7.72 -13.03,-2.04 1.37,3.88 2.59,7.52 1.6,11.7 -3.78,15.89 -24.28,14.66 -26.26,1.49 -1.57,-10.42 10,-17.69 16.06,-10.84 5.65,6.38 -3.13,15.3 -8.15,10.12 -2.38,-2.45 0.06,-3.94 -0.6,-5.96 -2.11,-1.12 -3.43,1.27 -3.79,3.14 -1.91,10.15 14.09,15.75 19.63,1.87 2.34,-4.06 1.4,-12.27 -1.04,-15.21 -0.52,-0.62 -1.16,-1.24 -1.82,-1.8 -6.79,-5.83 -18.09,-2.71 -23.16,3.79 -2.65,3.4 -1.14,1.25 -7.11,3.72 -6.65,2.74 -19.16,8.05 -23.77,12.66 -5.19,5.17 -5.59,14.68 -3.74,23.16 3.69,16.91 16.24,23.97 36.09,21.01 21.54,-3.21 21.63,-12.28 25.72,-9.65 1.71,1.1 1.26,3.59 0.1,4.94 -0.86,0.98 -2.88,2.09 -4.21,3.01 -1.37,0.96 -3.24,1.68 -4.52,2.68 0.14,0.96 2.16,5.03 2.76,6.74 5.85,16.5 2.39,43.87 1.86,60.61l-0.05 0.01 0 10.43c0.63,-0.04 1.19,-0.13 1.66,-0.27 8.68,-0.44 18.83,-8.02 27.15,-12.61l24.93 -14.68 0.09 -0.04c0,-21.77 -6.7,-54.24 -12.49,-75.11z" />
    </g>
  </g>
</svg>
