<?xml version="1.0" encoding="UTF-8"?>
<!DOCTYPE svg PUBLIC "-//W3C//DTD SVG 1.1//EN" "http://www.w3.org/Graphics/SVG/1.1/DTD/svg11.dtd">
<!-- Creator: CorelDRAW 2020 (64 Bit) -->
<svg xmlns="http://www.w3.org/2000/svg" xml:space="preserve" width="264px" height="290px" version="1.1" style="shape-rendering:geometricPrecision; text-rendering:geometricPrecision; image-rendering:optimizeQuality; fill-rule:evenodd; clip-rule:evenodd"
viewBox="0 0 268.6 294.46"
 xmlns:xlink="http://www.w3.org/1999/xlink"
 xmlns:xodm="http://www.corel.com/coreldraw/odm/2003">
 <defs>
  <style type="text/css">
   <![CDATA[
    .fil0 {fill:#FEFEFE}
   ]]>
  </style>
 </defs>
 <g id="Camada_x0020_1">
  <metadata id="CorelCorpID_0Corel-Layer"/>
  <g id="_2051201242800">
   <path class="fil0" d="M243.36 76.29c4.18,4.45 7.92,11.27 8.73,20.08 0.04,24.4 4.38,106.06 -6.19,119.77l-6.62 6.52 -12.13 7.1c-1.89,1.12 -6.76,4.23 -8.44,4.72 -26.4,-128.75 -45.86,39.01 -81.39,43.68 -4.19,0.26 -8.23,-0.12 -12.06,-1.28 -8.76,-2.65 -99.38,-57.5 -101.56,-60.36 -10.56,-13.87 -7.38,-27.22 -7.38,-48.3 0,-11.53 -0.59,-66.54 0.25,-73.03 1.14,-8.79 8.38,-18.17 19.63,-25.41 32.78,-21.07 56.55,-35.81 87.06,-50.72 10,-4.89 16.88,-2.33 28.33,1.9 17.01,6.28 84.88,48.01 91.77,55.33zm-121.53 -73.49c-11.54,2.71 -101.6,56.99 -105.01,60.16 -21.07,19.55 -16.42,38.19 -16.31,68.32 0.05,14.16 -0.02,28.34 0,42.51 0.01,13.13 -1.29,27.51 2.97,39.14 6.6,17.95 18.76,23.07 32.65,31.13 19.13,11.09 57.17,36.95 75.94,44.09 3.98,3.75 21.32,7.57 27.75,5.68 13.38,-0.67 29.03,-12.36 41.87,-19.45l38.43 -22.63c3.1,-1.2 19.61,-11.19 23.91,-13.71 8.61,-5.03 13.61,-10.13 18.65,-19.32 8.84,-16.11 5.15,-95.47 5.19,-120.26 -0.11,-14.56 -6.5,-26.04 -13.47,-33.2 -13.12,-9.68 -29.61,-20.94 -48.46,-31.99 -16.03,-9.4 -35.18,-20.43 -47.57,-27.02 -11.38,-6.06 -24.47,-8.67 -36.54,-3.45z"/>
   <path class="fil0" d="M63.61 111.07c6.83,-1.68 8.94,9.12 1.97,10.88 -3.47,0.87 -6.02,-1.5 -6.45,-4.44 -0.57,-3.9 1.36,-5.68 4.48,-6.44zm137.37 24.45c-4.25,-15.32 -10.34,-26.75 -20.39,-38 -3.47,-3.88 -10.76,-9.84 -16.6,-12.85 -3.25,-1.68 -23.3,-11.94 -20.17,-3.16 2.13,6 4.01,11.63 2.47,18.1 -5.84,24.6 -37.55,22.69 -40.63,2.32 -2.43,-16.12 15.47,-27.38 24.86,-16.78 8.74,9.87 -4.85,23.67 -12.62,15.65 -3.67,-3.79 0.09,-6.09 -0.92,-9.22 -3.26,-1.73 -5.32,1.97 -5.87,4.87 -2.95,15.7 21.8,24.36 30.37,2.89 3.62,-6.28 2.17,-18.98 -1.6,-23.54 -0.8,-0.96 -1.81,-1.91 -2.82,-2.78 -10.51,-9.02 -28,-4.2 -35.84,5.86 -4.1,5.26 -1.75,1.93 -11,5.75 -10.28,4.24 -29.65,12.47 -36.78,19.59 -8.02,8.01 -8.65,22.72 -5.78,35.84 5.71,26.16 25.12,37.08 55.84,32.51 33.32,-4.96 33.46,-19.01 39.8,-14.93 2.65,1.7 1.94,5.56 0.15,7.64 -1.32,1.52 -4.46,3.24 -6.51,4.67 -2.12,1.47 -5.01,2.59 -6.99,4.14 0.21,1.49 3.33,7.78 4.27,10.43 9.04,25.52 3.68,67.88 2.86,93.78l-0.06 0.01 0 16.15c0.97,-0.08 1.84,-0.22 2.56,-0.43 13.43,-0.68 29.14,-12.4 42.01,-19.52l38.57 -22.7 0.14 -0.06c0,-33.68 -10.35,-83.93 -19.32,-116.23z"/>
  </g>
 </g>
</svg>
