<?xml version="1.0" encoding="UTF-8"?>
<!DOCTYPE svg PUBLIC "-//W3C//DTD SVG 1.1//EN" "http://www.w3.org/Graphics/SVG/1.1/DTD/svg11.dtd">
<!-- Creator: CorelDRAW 2020 (64 Bit) -->
<svg xmlns="http://www.w3.org/2000/svg" xml:space="preserve" width="264px" height="290px" version="1.1" style="shape-rendering:geometricPrecision; text-rendering:geometricPrecision; image-rendering:optimizeQuality; fill-rule:evenodd; clip-rule:evenodd"
viewBox="0 0 277.45 304.16"
 xmlns:xlink="http://www.w3.org/1999/xlink"
 xmlns:xodm="http://www.corel.com/coreldraw/odm/2003">
 <defs>
  <style type="text/css">
   <![CDATA[
    .fil1 {fill:#FEFEFE}
    .fil0 {fill:url(#id0)}
   ]]>
  </style>
  <linearGradient id="id0" gradientUnits="userSpaceOnUse" x1="0" y1="152.01" x2="277.45" y2="152.01">
   <stop offset="0" style="stop-opacity:1; stop-color:#6E3FFA"/>
   <stop offset="1" style="stop-opacity:1; stop-color:#0CEA94"/>
  </linearGradient>
 </defs>
 <g id="Camada_x0020_1">
  <metadata id="CorelCorpID_0Corel-Layer"/>
  <g id="_2051199160608">
   <path class="fil0" d="M251.38 78.81c4.31,4.59 8.18,11.64 9.02,20.74 0.03,25.2 4.52,109.55 -6.4,123.71l-6.83 6.73 -12.54 7.34c-1.95,1.16 -6.98,4.37 -8.72,4.88 -27.27,-133 -47.37,40.29 -84.06,45.11 -4.33,0.27 -8.51,-0.12 -12.46,-1.32 -9.05,-2.74 -102.65,-59.39 -104.91,-62.35 -10.9,-14.32 -7.62,-28.12 -7.62,-49.89 0,-11.91 -0.62,-68.73 0.25,-75.43 1.18,-9.08 8.66,-18.78 20.29,-26.25 33.86,-21.76 58.41,-36.99 89.93,-52.39 10.32,-5.05 17.43,-2.41 29.26,1.96 17.57,6.48 87.67,49.59 94.79,57.16zm-125.54 -75.92c-11.92,2.8 -104.94,58.87 -108.47,62.14 -21.76,20.2 -16.96,39.45 -16.84,70.57 0.05,14.63 -0.02,29.28 0,43.91 0.01,13.57 -1.34,28.42 3.07,40.43 6.81,18.55 19.37,23.83 33.73,32.16 19.75,11.46 59.05,38.17 78.43,45.54 4.12,3.87 22.02,7.82 28.66,5.87 13.82,-0.7 29.99,-12.77 43.25,-20.09l39.71 -23.37c3.19,-1.24 20.24,-11.57 24.69,-14.17 8.9,-5.2 14.06,-10.46 19.26,-19.95 9.13,-16.65 5.33,-98.62 5.36,-124.23 -0.11,-15.03 -6.71,-26.89 -13.91,-34.29 -13.55,-9.99 -30.58,-21.63 -50.06,-33.05 -16.56,-9.7 -36.34,-21.1 -49.13,-27.9 -11.76,-6.26 -25.28,-8.96 -37.75,-3.57z"/>
   <path class="fil1" d="M65.7 114.73c7.06,-1.73 9.24,9.42 2.04,11.24 -3.58,0.9 -6.22,-1.56 -6.66,-4.58 -0.59,-4.04 1.41,-5.87 4.62,-6.66zm141.9 25.26c-4.39,-15.83 -10.68,-27.63 -21.06,-39.25 -3.58,-4.02 -11.12,-10.17 -17.15,-13.28 -3.36,-1.73 -24.06,-12.33 -20.83,-3.27 2.19,6.21 4.14,12.02 2.55,18.7 -6.03,25.41 -38.79,23.44 -41.97,2.39 -2.51,-16.65 15.98,-28.27 25.68,-17.33 9.03,10.2 -5.01,24.46 -13.04,16.17 -3.79,-3.91 0.1,-6.29 -0.95,-9.52 -3.37,-1.79 -5.49,2.03 -6.05,5.02 -3.06,16.22 22.51,25.17 31.36,2.99 3.74,-6.48 2.25,-19.61 -1.65,-24.32 -0.83,-0.99 -1.87,-1.97 -2.91,-2.87 -10.86,-9.31 -28.92,-4.33 -37.02,6.05 -4.24,5.44 -1.82,2.01 -11.37,5.95 -10.62,4.38 -30.62,12.87 -37.99,20.23 -8.28,8.28 -8.93,23.47 -5.97,37.02 5.9,27.03 25.95,38.31 57.68,33.59 34.42,-5.13 34.56,-19.64 41.11,-15.43 2.74,1.76 2.01,5.75 0.15,7.89 -1.36,1.58 -4.6,3.35 -6.72,4.82 -2.19,1.53 -5.18,2.68 -7.22,4.29 0.22,1.53 3.44,8.04 4.41,10.77 9.34,26.36 3.81,70.12 2.96,96.87l-0.07 0.01 0 16.68c1.01,-0.08 1.9,-0.22 2.65,-0.44 13.87,-0.71 30.09,-12.81 43.4,-20.16l39.83 -23.46 0.15 -0.05c0,-34.8 -10.7,-86.7 -19.96,-120.06z"/>
  </g>
 </g>
</svg>
