<?xml version="1.0" encoding="UTF-8"?>
<!DOCTYPE svg PUBLIC "-//W3C//DTD SVG 1.1//EN" "http://www.w3.org/Graphics/SVG/1.1/DTD/svg11.dtd">
<!-- Creator: CorelDRAW 2020 (64 Bit) -->
<svg xmlns="http://www.w3.org/2000/svg" xml:space="preserve" width="388px" height="388px"
  version="1.1"
  style="shape-rendering:geometricPrecision; text-rendering:geometricPrecision; image-rendering:optimizeQuality; fill-rule:evenodd; clip-rule:evenodd"
  viewBox="0 0 388 388"
  xmlns:xlink="http://www.w3.org/1999/xlink"
  xmlns:xodm="http://www.corel.com/coreldraw/odm/2003">
  <defs>
    <style type="text/css">
    <![CDATA[
      .fil2 {fill:#FEFEFE}
      .fil0 {fill:#373435}
      .fil1 {fill:url(#id0)}
    ]]>
    </style>
    <linearGradient id="id0" gradientUnits="userSpaceOnUse" x1="61.94" y1="193.94" x2="326.06"
      y2="193.94">
      <stop offset="0" style="stop-opacity:1; stop-color:#6E3FFA" />
      <stop offset="1" style="stop-opacity:1; stop-color:#0CEA94" />
    </linearGradient>
  </defs>
  <g id="Camada_x0020_1">
    <metadata id="CorelCorpID_0Corel-Layer" />
    <rect class="fil0" width="388" height="388" />
    <g id="_2051204152992">
      <path class="fil1"
        d="M301.24 124.24c4.11,4.38 7.79,11.09 8.59,19.75 0.04,23.99 4.31,104.29 -6.09,117.77l-6.5 6.41 -11.94 6.98c-1.86,1.11 -6.64,4.17 -8.3,4.65 -25.96,-126.61 -45.09,38.36 -80.02,42.95 -4.12,0.26 -8.1,-0.11 -11.87,-1.26 -8.61,-2.6 -97.72,-56.54 -99.86,-59.36 -10.39,-13.63 -7.26,-26.76 -7.26,-47.49 0,-11.34 -0.59,-65.43 0.24,-71.81 1.12,-8.64 8.24,-17.87 19.31,-24.99 32.23,-20.72 55.61,-35.21 85.61,-49.88 9.83,-4.8 16.59,-2.29 27.86,1.87 16.72,6.17 83.46,47.21 90.23,54.41zm-119.5 -72.27c-11.35,2.67 -99.91,56.05 -103.26,59.16 -20.72,19.22 -16.15,37.55 -16.04,67.18 0.05,13.93 -0.02,27.87 0,41.8 0.01,12.92 -1.27,27.06 2.92,38.49 6.49,17.66 18.45,22.69 32.11,30.62 18.81,10.9 56.22,36.33 74.67,43.36 3.92,3.68 20.96,7.44 27.29,5.58 13.15,-0.66 28.55,-12.15 41.17,-19.12l37.8 -22.26c3.04,-1.18 19.27,-11.01 23.5,-13.48 8.47,-4.95 13.39,-9.97 18.34,-19 8.69,-15.84 5.07,-93.88 5.1,-118.26 -0.1,-14.31 -6.38,-25.6 -13.24,-32.65 -12.9,-9.51 -29.11,-20.59 -47.65,-31.46 -15.77,-9.24 -34.6,-20.08 -46.78,-26.56 -11.19,-5.96 -24.06,-8.53 -35.93,-3.4z" />
      <path class="fil2"
        d="M124.49 158.44c6.71,-1.65 8.79,8.97 1.94,10.7 -3.42,0.86 -5.93,-1.48 -6.35,-4.36 -0.56,-3.84 1.34,-5.59 4.41,-6.34zm135.08 24.05c-4.18,-15.07 -10.17,-26.3 -20.05,-37.37 -3.41,-3.82 -10.58,-9.67 -16.32,-12.64 -3.2,-1.65 -22.91,-11.74 -19.84,-3.11 2.09,5.91 3.94,11.44 2.43,17.8 -5.74,24.19 -36.93,22.31 -39.95,2.28 -2.39,-15.85 15.21,-26.92 24.44,-16.5 8.6,9.71 -4.76,23.28 -12.41,15.4 -3.61,-3.73 0.1,-5.99 -0.9,-9.08 -3.21,-1.69 -5.23,1.94 -5.77,4.79 -2.91,15.44 21.43,23.96 29.86,2.84 3.56,-6.17 2.14,-18.66 -1.57,-23.14 -0.79,-0.95 -1.78,-1.88 -2.78,-2.74 -10.33,-8.86 -27.52,-4.13 -35.23,5.76 -4.04,5.18 -1.73,1.91 -10.82,5.66 -10.12,4.17 -29.16,12.26 -36.17,19.27 -7.89,7.88 -8.51,22.34 -5.69,35.24 5.62,25.72 24.71,36.47 54.91,31.97 32.77,-4.88 32.91,-18.69 39.14,-14.68 2.61,1.67 1.91,5.46 0.14,7.51 -1.29,1.5 -4.38,3.18 -6.39,4.59 -2.09,1.45 -4.93,2.55 -6.88,4.08 0.21,1.46 3.28,7.65 4.2,10.25 8.89,25.09 3.63,66.75 2.82,92.22l-0.07 0 0 15.89c0.96,-0.08 1.81,-0.21 2.53,-0.42 13.2,-0.67 28.64,-12.2 41.31,-19.19l37.92 -22.33 0.14 -0.06c0,-33.12 -10.18,-82.53 -19,-114.29z" />
    </g>
  </g>
</svg>
